<svg xmlns="http://www.w3.org/2000/svg" width="32" height="32" fill="none">
  <path fill="#3E85F3" d="M27.656 17.393c-.903.24-1.834.362-2.77.362-2.846 0-5.52-1.107-7.527-3.115a10.7 10.7 0 0 1-2.752-10.297 1.333 1.333 0 0 0-1.634-1.631 13.352 13.352 0 0 0-5.985 3.443c-5.197 5.197-5.197 13.657 0 18.857a13.25 13.25 0 0 0 9.43 3.907 13.238 13.238 0 0 0 9.426-3.906 13.344 13.344 0 0 0 3.444-5.988 1.335 1.335 0 0 0-1.632-1.632Zm-3.696 5.735a10.597 10.597 0 0 1-7.541 3.124 10.604 10.604 0 0 1-7.544-3.125c-4.158-4.159-4.158-10.927 0-15.086.803-.802 1.73-1.47 2.746-1.977a13.368 13.368 0 0 0 3.854 10.464 13.295 13.295 0 0 0 10.464 3.855 10.715 10.715 0 0 1-1.979 2.745Z"/>
</svg>
