<svg aria-hidden="true" style="position: absolute; width: 0; height: 0; overflow: hidden;" version="1.1" xmlns="http://www.w3.org/2000/svg" xmlns:xlink="http://www.w3.org/1999/xlink">
<defs>
<symbol id="icon-arrow-right" viewBox="0 0 32 32">
<path stroke-linejoin="round" stroke-linecap="round" stroke-miterlimit="4" stroke-width="2.6" d="M4.45 9.334c2.348-4.014 6.638-6.667 11.548-6.667 7.364 0 13.334 5.97 13.334 13.334s-5.97 13.334-13.334 13.334c-4.909 0-9.199-2.653-11.514-6.604l-0.034-0.063"></path>
<path stroke-linejoin="round" stroke-linecap="round" stroke-miterlimit="4" stroke-width="2.6" d="M16 21.334l5.334-5.334-5.334-5.334M2.666 16h18.668"></path>
</symbol>
<symbol id="icon-calendar-check" viewBox="0 0 32 32">
<path stroke-linejoin="round" stroke-linecap="round" stroke-miterlimit="4" stroke-width="2.6667" d="M28 13.333h-24M28 16.667v-4.933c0-2.24 0-3.36-0.436-4.216-0.391-0.756-0.992-1.357-1.726-1.737l-0.022-0.011c-0.856-0.436-1.976-0.436-4.216-0.436h-11.2c-2.24 0-3.36 0-4.216 0.436-0.756 0.391-1.357 0.992-1.737 1.726l-0.011 0.022c-0.436 0.856-0.436 1.976-0.436 4.216v11.2c0 2.24 0 3.36 0.436 4.216 0.391 0.756 0.992 1.357 1.726 1.738l0.022 0.011c0.856 0.436 1.976 0.436 4.216 0.436h5.6M21.333 2.667v5.333M10.667 2.667v5.333M19.333 25.333l2.667 2.667 6-6"></path>
</symbol>
<symbol id="icon-moon" viewBox="0 0 32 32">
<path d="M27.656 17.393c-0.903 0.24-1.834 0.362-2.77 0.362-2.846 0-5.52-1.107-7.527-3.115-1.923-1.934-3.112-4.6-3.112-7.544 0-0.979 0.131-1.927 0.378-2.828l-0.017 0.075c0.029-0.103 0.045-0.221 0.045-0.344 0-0.736-0.597-1.333-1.333-1.333-0.123 0-0.242 0.017-0.355 0.048l0.009-0.002c-2.353 0.64-4.373 1.837-5.985 3.443l0-0c-5.197 5.197-5.197 13.657 0 18.857 2.4 2.413 5.723 3.907 9.395 3.907 0.012 0 0.024-0 0.037-0h-0.002c0.011 0 0.024 0 0.037 0 3.67 0 6.991-1.493 9.389-3.905l0.001-0.001c1.607-1.612 2.804-3.634 3.422-5.894l0.022-0.094c0.028-0.102 0.044-0.22 0.044-0.341 0-0.737-0.598-1.335-1.335-1.335-0.121 0-0.239 0.016-0.351 0.047l0.009-0.002zM23.96 23.128c-1.92 1.93-4.577 3.124-7.513 3.124-0.010 0-0.019 0-0.029-0h0.002c-0.008 0-0.017 0-0.027 0-2.938 0-5.596-1.195-7.517-3.125l-0-0c-4.158-4.159-4.158-10.927 0-15.086 0.803-0.802 1.73-1.47 2.746-1.977-0.025 0.309-0.040 0.669-0.040 1.033 0 3.681 1.488 7.014 3.894 9.432l-0-0c2.406 2.408 5.731 3.897 9.404 3.897 0.373 0 0.742-0.015 1.108-0.045l-0.048 0.003c-0.538 1.056-1.198 1.961-1.979 2.745l0-0z"></path>
</symbol>
<symbol id="icon-pencil" viewBox="0 0 32 32">
<path stroke-linejoin="round" stroke-linecap="round" stroke-miterlimit="4" stroke-width="2.6" d="M3.334 28.666l7.4-2.846c0.472-0.18 0.708-0.272 0.93-0.392 0.196-0.104 0.384-0.226 0.56-0.364 0.2-0.154 0.378-0.332 0.736-0.69l15.040-15.040c0.703-0.686 1.138-1.642 1.138-2.7 0-2.083-1.689-3.772-3.772-3.772-1.058 0-2.014 0.436-2.699 1.137l-15.041 15.041c-0.243 0.23-0.468 0.47-0.679 0.723l-0.011 0.013c-0.138 0.176-0.26 0.364-0.364 0.56-0.12 0.22-0.21 0.46-0.392 0.932l-2.846 7.4zM3.334 28.666l2.744-7.134c0.196-0.51 0.294-0.766 0.462-0.882 0.106-0.075 0.238-0.12 0.381-0.12 0.044 0 0.087 0.004 0.129 0.012l-0.004-0.001c0.2 0.040 0.394 0.232 0.78 0.62l3.014 3.010c0.386 0.388 0.58 0.58 0.62 0.782 0.008 0.038 0.012 0.081 0.012 0.125 0 0.143-0.045 0.275-0.121 0.383l0.001-0.002c-0.118 0.168-0.374 0.266-0.884 0.462l-7.134 2.744z"></path>
</symbol>
<symbol id="icon-plus" viewBox="0 0 32 32">
<path stroke-linejoin="round" stroke-linecap="round" stroke-miterlimit="4" stroke-width="2.6667" d="M16 10.667v10.667M10.667 16h10.667M29.333 16c0 7.364-5.969 13.333-13.333 13.333s-13.333-5.969-13.333-13.333 5.969-13.333 13.333-13.333 13.333 5.969 13.333 13.333z"></path>
</symbol>
<symbol id="icon-sun" viewBox="0 0 32 32">
<path d="M9.324 16c0.004 3.685 2.991 6.672 6.676 6.676h0c3.685-0.004 6.672-2.991 6.676-6.676v-0c-0.004-3.685-2.991-6.672-6.676-6.676h-0c-3.685 0.004-6.672 2.991-6.676 6.676v0zM16 11.99c2.21 0 4.010 1.8 4.010 4.010s-1.8 4.010-4.010 4.010c-2.214-0.002-4.008-1.796-4.010-4.010v-0c0-2.21 1.8-4.010 4.010-4.010zM14.664 25.333h2.667v4h-2.667v-4zM14.664 2.667h2.667v4h-2.667v-4zM2.664 14.667h4v2.666h-4v-2.666zM25.331 14.667h4v2.666h-4v-2.666zM5.625 24.484l2.827-2.83 1.887 1.886-2.827 2.83-1.887-1.886zM21.653 8.459l2.83-2.83 1.885 1.886-2.83 2.829-1.885-1.885zM8.456 10.345l-2.83-2.829 1.887-1.885 2.827 2.829-1.884 1.885zM26.368 24.485l-1.885 1.886-2.83-2.83 1.886-1.885 2.83 2.83z"></path>
</symbol>
<symbol id="icon-trash" viewBox="0 0 32 32">
<path stroke-linejoin="round" stroke-linecap="round" stroke-miterlimit="4" stroke-width="2.6" d="M12 4h8M4 8h24M6.666 8l0.8 12.018c0.15 2.23 0.224 3.346 0.59 4.242 0.673 1.625 1.992 2.868 3.628 3.424l0.042 0.012c0.92 0.304 2.038 0.304 4.274 0.304v0c2.236 0 3.354 0 4.272-0.304 1.679-0.568 2.999-1.81 3.657-3.396l0.015-0.040c0.364-0.896 0.44-2.012 0.588-4.242l0.8-12.018"></path>
</symbol>
<symbol id="icon-user-check" viewBox="0 0 32 32">
<path stroke-linejoin="round" stroke-linecap="round" stroke-miterlimit="4" stroke-width="2.6667" d="M21.333 24l2.667 2.667 5.333-5.333M16 20.667h-6c-1.861 0-2.791 0-3.548 0.229-1.708 0.529-3.026 1.848-3.546 3.518l-0.010 0.038c-0.229 0.757-0.229 1.687-0.229 3.548v0M13.333 16c3.314 0 6-2.686 6-6s-2.686-6-6-6v0c-3.314 0-6 2.686-6 6s2.686 6 6 6v0z"></path>
</symbol>
</defs>
</svg>
