<svg xmlns="http://www.w3.org/2000/svg" width="32" height="32" fill="none">
  <path fill="#3E85F3" d="M9.324 16A6.683 6.683 0 0 0 16 22.676 6.683 6.683 0 0 0 22.676 16 6.683 6.683 0 0 0 16 9.324 6.683 6.683 0 0 0 9.324 16ZM16 11.99c2.21 0 4.01 1.8 4.01 4.01s-1.8 4.01-4.01 4.01A4.014 4.014 0 0 1 11.99 16c0-2.21 1.8-4.01 4.01-4.01Zm-1.336 13.343h2.667v4h-2.667v-4Zm0-22.666h2.667v4h-2.667v-4Zm-12 12h4v2.666h-4v-2.666Zm22.667 0h4v2.666h-4v-2.666ZM5.625 24.484l2.827-2.83 1.887 1.886-2.827 2.83-1.887-1.886ZM21.653 8.459l2.83-2.83 1.885 1.886-2.83 2.829-1.885-1.885ZM8.456 10.345l-2.83-2.829 1.887-1.885L10.34 8.46l-1.884 1.885Zm17.912 14.14-1.885 1.886-2.83-2.83 1.886-1.885 2.83 2.83Z"/>
</svg>
